<?xml version="1.0" ?><!DOCTYPE svg  PUBLIC '-//W3C//DTD SVG 20010904//EN'  'http://www.w3.org/TR/2001/REC-SVG-20010904/DTD/svg10.dtd'><svg height="512.000000pt" preserveAspectRatio="xMidYMid meet" version="1.0" viewBox="0 0 512.000000 512.000000" width="512.000000pt" xmlns="http://www.w3.org/2000/svg"><g fill="#EEE" stroke="none" transform="translate(0.000000,512.000000) scale(0.100000,-0.100000)"><path d="M2285 4898 c-311 -35 -683 -165 -955 -333 -220 -137 -472 -361 -622 -555 -256 -331 -417 -712 -480 -1135 -20 -136 -17 -512 5 -655 103 -665 471 -1245 1027 -1616 287 -191 623 -320 966 -371 164 -24 504 -24 668 0 411 61 815 237 1136 494 459 368 764 897 857 1485 25 159 25 537 0 696 -83 524 -329 995 -708 1356 -370 352 -861 581 -1361 635 -114 13 -419 12 -533 -1z m1785 -1197 c0 -5 -18 -24 -39 -43 -78 -66 -641 -585 -676 -622 -18 -19 -322 -302 -567 -527 -117 -108 -167 -139 -226 -139 -78 0 -81 2 -496 384 -83 76 -191 178 -241 225 -161 155 -647 603 -736 679 -21 19 -39 38 -39 43 0 5 601 9 1510 9 909 0 1510 -4 1510 -9z m-2690 -543 c151 -138 331 -305 400 -370 l124 -118 -39 -39 c-22 -21 -218 -202 -435 -401 -217 -200 -431 -398 -475 -440 -44 -43 -99 -94 -122 -115 l-43 -37 0 971 c0 994 0 990 38 1033 14 16 24 8 146 -107 72 -68 255 -238 406 -377z m2932 451 c17 -32 18 -100 18 -1003 l0 -968 -64 58 c-146 134 -906 843 -971 906 l-70 69 96 92 c52 51 239 223 414 382 176 160 369 338 430 397 60 59 115 106 120 105 6 -2 18 -19 27 -38z m-2117 -1200 c201 -188 230 -204 370 -204 143 0 171 15 367 199 87 81 162 146 167 144 6 -1 79 -69 163 -149 84 -80 284 -266 443 -413 427 -394 560 -520 560 -531 0 -5 -16 -18 -35 -28 -33 -16 -129 -17 -1680 -15 -1632 3 -1645 3 -1677 23 l-32 20 157 147 c86 80 310 288 497 461 187 174 383 356 435 406 52 49 97 90 100 90 3 0 77 -67 165 -150z"/></g></svg>